<?xml version="1.0" encoding="iso-8859-1"?>
<!-- Uploaded to: SVG Repo, www.svgrepo.com, Generator: SVG Repo Mixer Tools -->
<svg height="800px" width="800px" version="1.1" id="Capa_1" xmlns="http://www.w3.org/2000/svg" xmlns:xlink="http://www.w3.org/1999/xlink" 
	 viewBox="0 0 46.235 46.235" xml:space="preserve">
<g>
	<path style="fill:#010002;" d="M1.151,36.399h43.934c0.345,0,0.625-0.28,0.625-0.625V0.625C45.709,0.28,45.43,0,45.084,0H1.151
		C0.806,0,0.526,0.28,0.526,0.625v35.149C0.526,36.119,0.806,36.399,1.151,36.399z M1.776,1.25h42.684v33.899H1.776V1.25z"/>
	<path style="fill:#010002;" d="M41.17,4.489H5.066c-0.345,0-0.625,0.28-0.625,0.625v24.022c0,0.345,0.28,0.625,0.625,0.625h36.103
		c0.345,0,0.625-0.28,0.625-0.625V5.114C41.795,4.769,41.514,4.489,41.17,4.489z M40.545,28.511H5.691V5.739h34.853L40.545,28.511
		L40.545,28.511z"/>
	<path style="fill:#010002;" d="M13.279,39.923c-0.345,0-0.625,0.28-0.625,0.625v5.062c0,0.345,0.28,0.625,0.625,0.625h19.677
		c0.345,0,0.625-0.28,0.625-0.625v-5.062c0-0.345-0.28-0.625-0.625-0.625H13.279z M32.331,44.986H13.904v-3.812h18.427V44.986z"/>
</g>
</svg>